<?xml version="1.0" encoding="UTF-8" standalone="no"?>
<!-- Created with Inkscape (http://www.inkscape.org/) -->

<svg
   xmlns:dc="http://purl.org/dc/elements/1.1/"
   xmlns:cc="http://creativecommons.org/ns#"
   xmlns:rdf="http://www.w3.org/1999/02/22-rdf-syntax-ns#"
   xmlns:svg="http://www.w3.org/2000/svg"
   xmlns="http://www.w3.org/2000/svg"
   xmlns:inkscape="http://www.inkscape.org/namespaces/inkscape"
   version="1.1"
   width="1570.2314"
   height="1500"
   id="svg2"
   xml:space="preserve"><metadata
     id="metadata8"><rdf:RDF><cc:Work
         rdf:about=""><dc:format>image/svg+xml</dc:format><dc:type
           rdf:resource="http://purl.org/dc/dcmitype/StillImage" /></cc:Work></rdf:RDF></metadata><defs
     id="defs6"><clipPath
       id="clipPath16"><path
         d="M 0,792 612,792 612,0 0,0 0,792 z"
         inkscape:connector-curvature="0"
         id="path18" /></clipPath><clipPath
       id="clipPath32"><path
         d="M 0,792 612,792 612,0 0,0 0,792 z"
         inkscape:connector-curvature="0"
         id="path34" /></clipPath><clipPath
       id="clipPath44"><path
         d="M 0,792 612,792 612,0 0,0 0,792 z"
         inkscape:connector-curvature="0"
         id="path46" /></clipPath><clipPath
       id="clipPath56"><path
         d="M 0,792 612,792 612,0 0,0 0,792 z"
         inkscape:connector-curvature="0"
         id="path58" /></clipPath><clipPath
       id="clipPath104"><path
         d="M 0,792 612,792 612,0 0,0 0,792 z"
         inkscape:connector-curvature="0"
         id="path106" /></clipPath><clipPath
       id="clipPath138"><path
         d="M 0,792 612,792 612,0 0,0 0,792 z"
         inkscape:connector-curvature="0"
         id="path140" /></clipPath></defs><g
     transform="matrix(1.25,0,0,-1.25,0,990)"
     id="g10"><g
       id="g12"><g
         clip-path="url(#clipPath16)"
         id="g14"><g
           transform="translate(64.916,352.6133)"
           id="g20"><path
             d="m 0,0 22.167,0 c 0,0 61.541,105.395 63.833,109.187 2.292,3.791 12.083,6.801 15.011,6.801 2.666,-0.001 97.781,-0.072 98.156,-0.072 0.375,0 1.146,0.333 1.646,1.146 0.5,0.812 8.25,16 8.25,16 0,0 0.437,1.812 -1.25,1.812 l -110.063,0 c -12.375,0 -25.916,-12.167 -29.5,-18.167 C 64.667,110.708 0,0 0,0"
             inkscape:connector-curvature="0"
             id="path22"
             style="fill:#ffd200;fill-opacity:1;fill-rule:nonzero;stroke:none" /></g><g
           transform="translate(64.916,352.6133)"
           id="g24"><path
             d="m 0,0 22.167,0 c 0,0 61.541,105.395 63.833,109.187 2.292,3.791 12.083,6.801 15.011,6.801 2.666,-0.001 97.781,-0.072 98.156,-0.072 0.375,0 1.146,0.333 1.646,1.146 0.5,0.812 8.25,16 8.25,16 0,0 0.437,1.812 -1.25,1.812 l -110.063,0 c -12.375,0 -25.916,-12.167 -29.5,-18.167 C 64.667,110.708 0,0 0,0 z"
             inkscape:connector-curvature="0"
             id="path26"
             style="fill:none;stroke:#2b35b2;stroke-width:1.5;stroke-linecap:butt;stroke-linejoin:miter;stroke-miterlimit:10;stroke-opacity:1;stroke-dasharray:none" /></g></g></g><g
       id="g28"><g
         clip-path="url(#clipPath32)"
         id="g30"><g
           transform="translate(87.0313,335.8125)"
           id="g36"><path
             d="m 0,0 c 0.703,0.012 22.281,0.313 23.031,0.313 0.75,0 1.313,-0.11 1.891,0.906 0.578,1.015 52.547,97.844 52.547,97.844 0,0 44.109,-98.594 44.344,-99.032 0.234,-0.437 0.531,-0.609 0.953,-0.625 0.422,-0.015 23.875,-0.062 24.328,-0.078 0.453,-0.016 1.844,0.641 1.312,1.781 -0.531,1.141 -60.271,125.599 -60.687,126.412 -0.417,0.812 -0.954,1.036 -1.37,1.015 -0.417,-0.02 -5.791,0.025 -7.672,-0.076 -1.88,-0.101 -4.177,-1.269 -5.443,-2.028 -1.265,-0.76 -2.576,-1.592 -4.006,-3.59 C 67.797,120.844 -0.531,3.562 -1.239,2.208 -1.948,0.854 -1.261,-0.021 0,0"
             inkscape:connector-curvature="0"
             id="path38"
             style="fill:#213b8f;fill-opacity:1;fill-rule:nonzero;stroke:none" /></g></g></g><g
       id="g40"><g
         clip-path="url(#clipPath44)"
         id="g42"><g
           transform="translate(61.8125,406.125)"
           id="g48"><path
             d="m 0,0 c 0,0 -2.25,-6 -6.375,-10.75 -4.125,-4.75 -10.063,-8.313 -10.063,-8.313 0,0 25.063,-14.25 57.126,-14.812 32.062,-0.563 78,6.75 108.5,33.875 30.5,27.125 46.593,63.719 47.296,96.422 0,0 -1.963,-0.484 -3.484,-0.734 -1.521,-0.25 -3.375,-0.313 -3.375,-0.313 0,0 -0.604,-22.125 -10.187,-39.729 C 169.854,38.042 164.271,29.791 139.104,11.458 113.938,-6.875 91.938,-12.375 52.938,-13.625 13.938,-14.875 0,0 0,0"
             inkscape:connector-curvature="0"
             id="path50"
             style="fill:#000000;fill-opacity:1;fill-rule:nonzero;stroke:none" /></g></g></g><g
       id="g52"><g
         clip-path="url(#clipPath56)"
         id="g54"><g
           transform="translate(213.46,430.708)"
           id="g60"><path
             d="m 0,0 -0.088,-0.498 c -0.769,-4.365 0.018,-8.446 2.361,-12.241 1.468,-1.898 2.456,-2.953 2.964,-3.167 3.017,-2.396 6.412,-3.594 10.185,-3.594 l 0.782,0 c 4.223,0 8.507,1.495 12.854,4.484 2.35,1.897 3.909,3.403 4.675,4.519 2.514,3.226 4.075,6.559 4.681,9.999 L 38.502,0 c 0.769,4.365 -0.018,8.445 -2.36,12.241 -1.469,1.898 -2.457,2.953 -2.965,3.167 -3.017,2.396 -6.411,3.594 -10.184,3.594 l -0.782,0 c -4.224,0 -8.508,-1.495 -12.855,-4.483 C 7.005,12.62 5.447,11.114 4.681,10 2.167,6.772 0.606,3.439 0,0 m 23.664,25.229 c 5.978,0 11.094,-1.993 15.351,-5.978 1.474,-1.589 2.474,-2.847 3,-3.772 2.793,-4.745 3.668,-10.07 2.627,-15.977 -0.808,-4.579 -2.969,-9.098 -6.483,-13.558 -0.866,-1.138 -2.339,-2.632 -4.42,-4.483 -2.61,-2.017 -4.868,-3.452 -6.773,-4.306 -4.182,-1.921 -8.278,-2.882 -12.287,-2.882 -4.697,0 -9.006,1.328 -12.926,3.985 -4.456,3.25 -7.17,7.769 -8.142,13.558 -0.352,2.847 -0.327,5.409 0.075,7.686 1.271,7.211 5.029,13.462 11.277,18.753 l 1.846,1.388 c 3.721,2.538 7.501,4.198 11.339,4.982 2.04,0.402 3.879,0.604 5.516,0.604"
             inkscape:connector-curvature="0"
             id="path62"
             style="fill:#ffd200;fill-opacity:1;fill-rule:nonzero;stroke:none" /></g><g
           transform="translate(213.46,430.708)"
           id="g64"><path
             d="m 0,0 -0.088,-0.498 c -0.769,-4.365 0.018,-8.446 2.361,-12.241 1.468,-1.898 2.456,-2.953 2.964,-3.167 3.017,-2.396 6.412,-3.594 10.185,-3.594 l 0.782,0 c 4.223,0 8.507,1.495 12.854,4.484 2.35,1.897 3.909,3.403 4.675,4.519 2.514,3.226 4.075,6.559 4.681,9.999 L 38.502,0 c 0.769,4.365 -0.018,8.445 -2.36,12.241 -1.469,1.898 -2.457,2.953 -2.965,3.167 -3.017,2.396 -6.411,3.594 -10.184,3.594 l -0.782,0 c -4.224,0 -8.508,-1.495 -12.855,-4.483 C 7.005,12.62 5.447,11.114 4.681,10 2.167,6.772 0.606,3.439 0,0 z m 23.664,25.229 c 5.978,0 11.094,-1.993 15.351,-5.978 1.474,-1.589 2.474,-2.847 3,-3.772 2.793,-4.745 3.668,-10.07 2.627,-15.977 -0.808,-4.579 -2.969,-9.098 -6.483,-13.558 -0.866,-1.138 -2.339,-2.632 -4.42,-4.483 -2.61,-2.017 -4.868,-3.452 -6.773,-4.306 -4.182,-1.921 -8.278,-2.882 -12.287,-2.882 -4.697,0 -9.006,1.328 -12.926,3.985 -4.456,3.25 -7.17,7.769 -8.142,13.558 -0.352,2.847 -0.327,5.409 0.075,7.686 1.271,7.211 5.029,13.462 11.277,18.753 l 1.846,1.388 c 3.721,2.538 7.501,4.198 11.339,4.982 2.04,0.402 3.879,0.604 5.516,0.604 z"
             inkscape:connector-curvature="0"
             id="path66"
             style="fill:none;stroke:#2b35b2;stroke-width:1.5;stroke-linecap:butt;stroke-linejoin:miter;stroke-miterlimit:10;stroke-opacity:1;stroke-dasharray:none" /></g><g
           transform="translate(275.3564,447.2192)"
           id="g68"><path
             d="m 0,0 -1.656,-9.394 c -0.272,-1.543 0.362,-2.515 1.904,-2.918 0.162,-0.024 0.337,-0.036 0.528,-0.036 l 10.319,0 c 2.989,0 5.538,1.34 7.648,4.021 0.778,1.186 1.266,2.336 1.463,3.452 l 0.063,0.356 c 0.335,1.897 -0.084,3.629 -1.255,5.195 -1.27,1.542 -3.008,2.313 -5.214,2.313 l -10.32,0 C 1.915,2.989 0.799,2.182 0.136,0.569 0.083,0.403 0.038,0.213 0,0 m -0.864,8.825 16.084,0 c 2.776,0 5.299,-0.961 7.569,-2.883 1.148,-1.162 1.892,-2.123 2.232,-2.882 1.202,-2.468 1.566,-5.041 1.093,-7.722 -0.548,-3.108 -2.086,-5.978 -4.614,-8.611 -1.392,-1.305 -2.466,-2.147 -3.22,-2.526 -0.832,-0.547 -1.897,-1.068 -3.195,-1.566 -0.533,-0.333 -0.845,-0.76 -0.937,-1.281 -0.063,-0.356 0.259,-1.223 0.966,-2.598 l 7.671,-16.831 c 0.102,-0.498 0.128,-0.889 0.077,-1.174 -0.251,-1.423 -1.146,-2.397 -2.685,-2.918 -0.292,-0.048 -0.51,-0.071 -0.652,-0.071 -1.281,0 -2.12,0.628 -2.514,1.886 -0.021,0.023 -3.331,7.211 -9.933,21.563 -0.214,0.404 -0.724,0.605 -1.531,0.605 l -5.195,0 c -1.352,0 -2.303,-0.273 -2.849,-0.818 -0.67,-0.569 -1.077,-1.269 -1.224,-2.1 l -3.124,-17.72 c -0.28,-1.59 -1.022,-2.634 -2.225,-3.132 -0.485,-0.19 -0.882,-0.284 -1.189,-0.284 l -0.214,0 c -1.02,0 -1.756,0.533 -2.208,1.601 -0.138,0.427 -0.138,1.032 0,1.815 l 7.799,44.231 c 0.402,2.277 1.741,3.416 4.018,3.416"
             inkscape:connector-curvature="0"
             id="path70"
             style="fill:#ffd200;fill-opacity:1;fill-rule:nonzero;stroke:none" /></g><g
           transform="translate(275.3564,447.2192)"
           id="g72"><path
             d="m 0,0 -1.656,-9.394 c -0.272,-1.543 0.362,-2.515 1.904,-2.918 0.162,-0.024 0.337,-0.036 0.528,-0.036 l 10.319,0 c 2.989,0 5.538,1.34 7.648,4.021 0.778,1.186 1.266,2.336 1.463,3.452 l 0.063,0.356 c 0.335,1.897 -0.084,3.629 -1.255,5.195 -1.27,1.542 -3.008,2.313 -5.214,2.313 l -10.32,0 C 1.915,2.989 0.799,2.182 0.136,0.569 0.083,0.403 0.038,0.213 0,0 z m -0.864,8.825 16.084,0 c 2.776,0 5.299,-0.961 7.569,-2.883 1.148,-1.162 1.892,-2.123 2.232,-2.882 1.202,-2.468 1.566,-5.041 1.093,-7.722 -0.548,-3.108 -2.086,-5.978 -4.614,-8.611 -1.392,-1.305 -2.466,-2.147 -3.22,-2.526 -0.832,-0.547 -1.897,-1.068 -3.195,-1.566 -0.533,-0.333 -0.845,-0.76 -0.937,-1.281 -0.063,-0.356 0.259,-1.223 0.966,-2.598 l 7.671,-16.831 c 0.102,-0.498 0.128,-0.889 0.077,-1.174 -0.251,-1.423 -1.146,-2.397 -2.685,-2.918 -0.292,-0.048 -0.51,-0.071 -0.652,-0.071 -1.281,0 -2.12,0.628 -2.514,1.886 -0.021,0.023 -3.331,7.211 -9.933,21.563 -0.214,0.404 -0.724,0.605 -1.531,0.605 l -5.195,0 c -1.352,0 -2.303,-0.273 -2.849,-0.818 -0.67,-0.569 -1.077,-1.269 -1.224,-2.1 l -3.124,-17.72 c -0.28,-1.59 -1.022,-2.634 -2.225,-3.132 -0.485,-0.19 -0.882,-0.284 -1.189,-0.284 l -0.214,0 c -1.02,0 -1.756,0.533 -2.208,1.601 -0.138,0.427 -0.138,1.032 0,1.815 l 7.799,44.231 c 0.402,2.277 1.741,3.416 4.018,3.416 z"
             inkscape:connector-curvature="0"
             id="path74"
             style="fill:none;stroke:#2b35b2;stroke-width:1.5;stroke-linecap:butt;stroke-linejoin:miter;stroke-miterlimit:10;stroke-opacity:1;stroke-dasharray:none" /></g><g
           transform="translate(320.8398,456.0083)"
           id="g76"><path
             d="M 0,0 C 1.281,0 2.117,-0.641 2.508,-1.921 2.607,-2.301 2.63,-2.646 2.576,-2.953 L -2.28,-30.495 c -0.465,-2.633 -0.537,-4.59 -0.217,-5.872 0.698,-3.298 2.459,-5.693 5.279,-7.188 1.581,-0.854 3.32,-1.28 5.218,-1.28 l 0.357,0 c 3.178,0 6.291,1.173 9.339,3.522 2.123,1.684 3.773,3.915 4.95,6.69 0.349,0.901 0.585,1.695 0.707,2.384 l 5.038,28.574 c 0.305,1.731 1.146,2.87 2.523,3.416 0.457,0.166 0.875,0.249 1.254,0.249 1.258,0 2.082,-0.641 2.473,-1.921 0.099,-0.38 0.121,-0.725 0.067,-1.032 L 29.55,-32.204 c -0.581,-3.297 -2.133,-6.583 -4.655,-9.856 -2.771,-3.464 -6.291,-6.014 -10.566,-7.65 -2.503,-0.879 -4.81,-1.317 -6.922,-1.317 l -0.64,0 c -3.297,0 -6.413,0.972 -9.343,2.918 -3.083,2.158 -5.089,5.242 -6.019,9.252 -0.468,2.324 -0.515,4.542 -0.143,6.653 l 5.158,29.251 c 0.187,1.067 0.912,1.944 2.172,2.633 C -0.896,-0.106 -0.427,0 0,0"
             inkscape:connector-curvature="0"
             id="path78"
             style="fill:#ffd200;fill-opacity:1;fill-rule:nonzero;stroke:none" /></g><g
           transform="translate(320.8398,456.0083)"
           id="g80"><path
             d="M 0,0 C 1.281,0 2.117,-0.641 2.508,-1.921 2.607,-2.301 2.63,-2.646 2.576,-2.953 L -2.28,-30.495 c -0.465,-2.633 -0.537,-4.59 -0.217,-5.872 0.698,-3.298 2.459,-5.693 5.279,-7.188 1.581,-0.854 3.32,-1.28 5.218,-1.28 l 0.357,0 c 3.178,0 6.291,1.173 9.339,3.522 2.123,1.684 3.773,3.915 4.95,6.69 0.349,0.901 0.585,1.695 0.707,2.384 l 5.038,28.574 c 0.305,1.731 1.146,2.87 2.523,3.416 0.457,0.166 0.875,0.249 1.254,0.249 1.258,0 2.082,-0.641 2.473,-1.921 0.099,-0.38 0.121,-0.725 0.067,-1.032 L 29.55,-32.204 c -0.581,-3.297 -2.133,-6.583 -4.655,-9.856 -2.771,-3.464 -6.291,-6.014 -10.566,-7.65 -2.503,-0.879 -4.81,-1.317 -6.922,-1.317 l -0.64,0 c -3.297,0 -6.413,0.972 -9.343,2.918 -3.083,2.158 -5.089,5.242 -6.019,9.252 -0.468,2.324 -0.515,4.542 -0.143,6.653 l 5.158,29.251 c 0.187,1.067 0.912,1.944 2.172,2.633 C -0.896,-0.106 -0.427,0 0,0 z"
             inkscape:connector-curvature="0"
             id="path82"
             style="fill:none;stroke:#2b35b2;stroke-width:1.5;stroke-linecap:butt;stroke-linejoin:miter;stroke-miterlimit:10;stroke-opacity:1;stroke-dasharray:none" /></g><g
           transform="translate(369.8262,456.0083)"
           id="g84"><path
             d="m 0,0 c 1.067,0 1.94,-0.771 2.617,-2.313 l 11.593,-19.82 c 0.538,-0.712 1.128,-1.068 1.769,-1.068 l 0.462,0 c 0.949,0 2.018,0.747 3.206,2.242 l 18.924,20.141 c 0.654,0.474 1.318,0.747 1.994,0.818 1.258,0 2.065,-0.605 2.42,-1.814 0.06,-0.333 0.066,-0.641 0.015,-0.926 l -8.031,-45.547 c -0.176,-0.997 -0.816,-1.803 -1.921,-2.42 -0.464,-0.213 -0.887,-0.32 -1.266,-0.32 l -0.142,0 c -0.996,0 -1.716,0.498 -2.157,1.494 -0.133,0.45 -0.167,0.866 -0.1,1.246 l 5.829,33.057 c 0.113,0.641 -0.13,1.079 -0.729,1.317 l -0.272,0.071 -0.249,0 c -0.522,0 -1.285,-0.629 -2.29,-1.886 -9.812,-10.439 -14.844,-15.776 -15.1,-16.013 -0.64,-0.404 -1.217,-0.64 -1.726,-0.712 l -0.533,0 c -0.618,0 -1.206,0.368 -1.763,1.104 L 2.521,-14.162 c -0.271,0.213 -0.513,0.32 -0.727,0.32 l -0.284,0 c -0.641,0 -1.131,-0.427 -1.473,-1.281 l -5.848,-33.164 c -0.175,-0.997 -0.815,-1.803 -1.92,-2.42 -0.464,-0.213 -0.887,-0.32 -1.266,-0.32 l -0.143,0 c -0.996,0 -1.715,0.498 -2.156,1.494 -0.134,0.45 -0.167,0.866 -0.1,1.246 l 8.031,45.547 c 0.197,1.115 0.938,1.957 2.224,2.527 C -0.915,-0.142 -0.534,-0.071 0,0"
             inkscape:connector-curvature="0"
             id="path86"
             style="fill:#ffd200;fill-opacity:1;fill-rule:nonzero;stroke:none" /></g><g
           transform="translate(369.8262,456.0083)"
           id="g88"><path
             d="m 0,0 c 1.067,0 1.94,-0.771 2.617,-2.313 l 11.593,-19.82 c 0.538,-0.712 1.128,-1.068 1.769,-1.068 l 0.462,0 c 0.949,0 2.018,0.747 3.206,2.242 l 18.924,20.141 c 0.654,0.474 1.318,0.747 1.994,0.818 1.258,0 2.065,-0.605 2.42,-1.814 0.06,-0.333 0.066,-0.641 0.015,-0.926 l -8.031,-45.547 c -0.176,-0.997 -0.816,-1.803 -1.921,-2.42 -0.464,-0.213 -0.887,-0.32 -1.266,-0.32 l -0.142,0 c -0.996,0 -1.716,0.498 -2.157,1.494 -0.133,0.45 -0.167,0.866 -0.1,1.246 l 5.829,33.057 c 0.113,0.641 -0.13,1.079 -0.729,1.317 l -0.272,0.071 -0.249,0 c -0.522,0 -1.285,-0.629 -2.29,-1.886 -9.812,-10.439 -14.844,-15.776 -15.1,-16.013 -0.64,-0.404 -1.217,-0.64 -1.726,-0.712 l -0.533,0 c -0.618,0 -1.206,0.368 -1.763,1.104 L 2.521,-14.162 c -0.271,0.213 -0.513,0.32 -0.727,0.32 l -0.284,0 c -0.641,0 -1.131,-0.427 -1.473,-1.281 l -5.848,-33.164 c -0.175,-0.997 -0.815,-1.803 -1.92,-2.42 -0.464,-0.213 -0.887,-0.32 -1.266,-0.32 l -0.143,0 c -0.996,0 -1.715,0.498 -2.156,1.494 -0.134,0.45 -0.167,0.866 -0.1,1.246 l 8.031,45.547 c 0.197,1.115 0.938,1.957 2.224,2.527 C -0.915,-0.142 -0.534,-0.071 0,0 z"
             inkscape:connector-curvature="0"
             id="path90"
             style="fill:none;stroke:#2b35b2;stroke-width:1.5;stroke-linecap:butt;stroke-linejoin:miter;stroke-miterlimit:10;stroke-opacity:1;stroke-dasharray:none" /></g></g></g><g
       transform="translate(243.0024,389.2012)"
       id="g92"><path
         d="m 0,0 -13.735,0 0,4.957 33.433,0 0,-4.957 -13.802,0 0,-40.201 -5.896,0 L 0,0 z"
         inkscape:connector-curvature="0"
         id="path94"
         style="fill:#252fa5;fill-opacity:1;fill-rule:nonzero;stroke:none" /></g><g
       transform="translate(269.3325,394.1582)"
       id="g96"><path
         d="m 0,0 5.896,0 0,-40.268 19.297,0 0,-4.89 L 0,-45.158 0,0 z"
         inkscape:connector-curvature="0"
         id="path98"
         style="fill:#252fa5;fill-opacity:1;fill-rule:nonzero;stroke:none" /></g><g
       id="g100"><g
         clip-path="url(#clipPath104)"
         id="g102"><g
           transform="translate(324.875,367.7607)"
           id="g108"><path
             d="m 0,0 -4.489,12.998 c -1.005,2.948 -1.675,5.628 -2.345,8.241 l -0.134,0 c -0.67,-2.613 -1.341,-5.427 -2.278,-8.175 L -13.668,0 0,0 z m -14.874,-4.557 -4.69,-14.204 -6.031,0 15.41,45.158 6.969,0 15.41,-45.158 -6.231,0 -4.824,14.204 -16.013,0 z"
             inkscape:connector-curvature="0"
             id="path110"
             style="fill:#252fa5;fill-opacity:1;fill-rule:nonzero;stroke:none" /></g><g
           transform="translate(345.377,349)"
           id="g112"><path
             d="m 0,0 0,45.158 6.433,0 14.405,-22.846 c 3.283,-5.293 5.963,-10.05 8.04,-14.674 l 0.201,0.067 c -0.536,6.03 -0.67,11.524 -0.67,18.56 l 0,18.893 5.494,0 L 33.903,0 28.007,0 13.669,22.914 C 10.52,27.939 7.505,33.099 5.293,37.99 l -0.2,-0.067 C 5.428,32.228 5.494,26.801 5.494,19.296 L 5.494,0 0,0 z"
             inkscape:connector-curvature="0"
             id="path114"
             style="fill:#252fa5;fill-opacity:1;fill-rule:nonzero;stroke:none" /></g><g
           transform="translate(399.7129,389.2012)"
           id="g116"><path
             d="m 0,0 -13.735,0 0,4.957 33.433,0 0,-4.957 -13.802,0 0,-40.201 -5.896,0 L 0,0 z"
             inkscape:connector-curvature="0"
             id="path118"
             style="fill:#252fa5;fill-opacity:1;fill-rule:nonzero;stroke:none" /></g><path
           d="m 431.939,349 -5.896,0 0,45.158 5.896,0 0,-45.158 z"
           inkscape:connector-curvature="0"
           id="path120"
           style="fill:#252fa5;fill-opacity:1;fill-rule:nonzero;stroke:none" /><g
           transform="translate(476.2266,371.7803)"
           id="g122"><path
             d="m 0,0 c 0,9.112 -4.689,18.426 -14.271,18.426 -9.849,0 -14.673,-9.113 -14.673,-18.895 0,-9.648 5.226,-18.291 14.472,-18.291 C -5.226,-18.76 0,-10.251 0,0 m 4.824,-29.413 c -6.096,1.607 -12.06,3.417 -17.286,5.225 -1.005,0.335 -1.876,0.67 -2.747,0.67 -10.787,0.403 -19.899,8.309 -19.899,22.915 0,14.472 8.777,23.786 20.971,23.786 12.328,0 20.301,-9.515 20.301,-22.848 0,-11.658 -5.359,-19.028 -12.864,-21.708 l 0,-0.269 c 4.489,-1.138 9.381,-2.211 13.199,-2.88 l -1.675,-4.891 z"
             inkscape:connector-curvature="0"
             id="path124"
             style="fill:#252fa5;fill-opacity:1;fill-rule:nonzero;stroke:none" /></g><g
           transform="translate(497.4648,394.1582)"
           id="g126"><path
             d="m 0,0 0,-26.8 c 0,-10.05 4.489,-14.338 10.52,-14.338 6.632,0 10.988,4.422 10.988,14.338 l 0,26.8 5.896,0 0,-26.397 c 0,-13.871 -7.303,-19.499 -17.086,-19.499 -9.246,0 -16.214,5.227 -16.214,19.297 L -5.896,0 0,0 z"
             inkscape:connector-curvature="0"
             id="path128"
             style="fill:#252fa5;fill-opacity:1;fill-rule:nonzero;stroke:none" /></g><g
           transform="translate(559.9766,370.1729)"
           id="g130"><path
             d="m 0,0 -17.487,0 0,-16.282 19.564,0 0,-4.891 -25.46,0 0,45.158 24.455,0 0,-4.89 -18.559,0 0,-14.272 L 0,4.823 0,0 z"
             inkscape:connector-curvature="0"
             id="path132"
             style="fill:#252fa5;fill-opacity:1;fill-rule:nonzero;stroke:none" /></g></g></g><g
       id="g134"><g
         clip-path="url(#clipPath138)"
         id="g136"><g
           transform="translate(211.5,406.125)"
           id="g142"><path
             d="M 0,0 C 6.23,5.541 8,8.5 14.5,15.5 21,22.5 17.349,34.203 4.475,23.182 0.327,19.63 -3.951,15.926 -10.084,11.458 -35.25,-6.875 -30.5,-27.125 0,0"
             inkscape:connector-curvature="0"
             id="path144"
             style="fill:#000000;fill-opacity:1;fill-rule:nonzero;stroke:none" /></g></g></g></g></svg>